<svg width="123" height="38" viewBox="0 0 123 38" fill="none" xmlns="http://www.w3.org/2000/svg">
<path d="M17.5 2.8713C14.31 2.8713 11.1917 3.81724 8.53938 5.58948C5.88703 7.36172 3.81977 9.88068 2.59903 12.8278C1.37829 15.7749 1.05888 19.0179 1.68121 22.1465C2.30354 25.2752 3.83965 28.1491 6.09529 30.4047C8.35093 32.6603 11.2248 34.1965 14.3534 34.8188C17.4821 35.4411 20.725 35.1217 23.6722 33.901C26.6193 32.6802 29.1383 30.613 30.9105 27.9606C32.6828 25.3083 33.6287 22.19 33.6287 19C33.6239 14.7239 31.923 10.6243 28.8994 7.60062C25.8757 4.57694 21.7761 2.87613 17.5 2.8713ZM17.5 1.5C20.9612 1.5 24.3446 2.52636 27.2225 4.44928C30.1003 6.37221 32.3433 9.10533 33.6679 12.303C34.9924 15.5007 35.339 19.0194 34.6637 22.4141C33.9885 25.8087 32.3218 28.9269 29.8744 31.3744C27.4269 33.8218 24.3087 35.4885 20.9141 36.1637C17.5194 36.839 14.0007 36.4924 10.803 35.1679C7.60533 33.8433 4.87221 31.6003 2.94928 28.7225C1.02636 25.8446 0 22.4612 0 19C0 14.3587 1.84374 9.90752 5.12563 6.62563C8.40752 3.34374 12.8587 1.5 17.5 1.5V1.5Z" fill="#0650E2"/>
<path d="M28.1679 3.07202C28.7541 3.07202 29.3271 3.24115 29.8145 3.55802C30.3019 3.87488 30.6818 4.32526 30.9061 4.85219C31.1304 5.37912 31.1891 5.95894 31.0747 6.51832C30.9604 7.07771 30.6781 7.59154 30.2636 7.99483C29.8491 8.39813 29.321 8.67277 28.7461 8.78404C28.1712 8.89531 27.5753 8.8382 27.0337 8.61994C26.4921 8.40168 26.0293 8.03207 25.7036 7.55784C25.3779 7.08362 25.2041 6.52608 25.2041 5.95574C25.2041 5.19093 25.5164 4.45744 26.0722 3.91664C26.628 3.37584 27.3818 3.07202 28.1679 3.07202V3.07202Z" fill="#FF901B"/>
<path d="M28.1679 4.02506C27.7754 4.02503 27.3918 4.13823 27.0654 4.35035C26.7391 4.56247 26.4847 4.86399 26.3345 5.21677C26.1843 5.56955 26.145 5.95775 26.2215 6.33227C26.2981 6.7068 26.487 7.05083 26.7645 7.32086C27.042 7.59089 27.3956 7.77479 27.7805 7.8493C28.1654 7.92381 28.5644 7.88559 28.927 7.73946C29.2896 7.59334 29.5995 7.34588 29.8176 7.02838C30.0356 6.71088 30.152 6.3376 30.152 5.95574C30.1514 5.44389 29.9422 4.95317 29.5702 4.59122C29.1983 4.22928 28.6939 4.02567 28.1679 4.02506ZM28.1679 3.07202C28.7541 3.07202 29.3271 3.24115 29.8145 3.55802C30.3019 3.87488 30.6818 4.32526 30.9061 4.85219C31.1304 5.37912 31.1891 5.95894 31.0747 6.51832C30.9604 7.07771 30.6781 7.59154 30.2636 7.99483C29.8491 8.39813 29.321 8.67277 28.7461 8.78404C28.1712 8.89531 27.5753 8.8382 27.0337 8.61994C26.4921 8.40168 26.0293 8.03207 25.7036 7.55784C25.3779 7.08362 25.2041 6.52608 25.2041 5.95574C25.2041 5.19093 25.5164 4.45744 26.0722 3.91664C26.628 3.37584 27.3818 3.07202 28.1679 3.07202V3.07202Z" fill="#0650E2"/>
<path fill-rule="evenodd" clip-rule="evenodd" d="M7.519 23.7197C7.63514 23.6054 7.77481 23.5163 7.92882 23.4583C8.07795 23.3984 8.23763 23.3672 8.39898 23.3665C8.55872 23.3669 8.71679 23.3981 8.86405 23.4583C9.02005 23.5154 9.16153 23.6046 9.27877 23.7198L9.45058 23.8849L9.10697 24.2208L8.93066 24.0553C8.85951 23.9861 8.77476 23.9316 8.68147 23.895C8.5917 23.8603 8.49599 23.8424 8.39938 23.8422C8.30245 23.8424 8.20643 23.8603 8.1163 23.895C8.0236 23.9321 7.93932 23.9865 7.86829 24.0553C7.79566 24.1206 7.73908 24.2009 7.70275 24.2903C7.66592 24.3764 7.64696 24.4688 7.64696 24.562C7.64696 24.6553 7.66592 24.7477 7.70275 24.8338C7.74 24.924 7.79641 25.0055 7.86829 25.073C7.93717 25.1419 8.01981 25.1965 8.11114 25.2332C8.20247 25.27 8.30056 25.2881 8.39938 25.2866C8.49811 25.2868 8.59598 25.2687 8.68774 25.2333C8.77968 25.1975 8.8626 25.1428 8.93085 25.073L9.10716 24.9081L9.44999 25.2441L9.27818 25.4096C9.16017 25.5249 9.019 25.6154 8.86346 25.6753C8.71542 25.7323 8.5576 25.7614 8.3984 25.7611C8.23757 25.7611 8.07813 25.732 7.92824 25.6753C7.77467 25.6144 7.63529 25.524 7.51841 25.4096C7.40071 25.2978 7.30847 25.1632 7.24768 25.0145C7.18942 24.872 7.15931 24.7202 7.15894 24.5669C7.15901 24.4116 7.18912 24.2576 7.24768 24.1131C7.30873 23.965 7.40095 23.831 7.51841 23.7197" fill="#085CEA"/>
<path fill-rule="evenodd" clip-rule="evenodd" d="M11.5909 24.9187L11.9396 25.2555L11.7672 25.42C11.5334 25.6458 11.2174 25.7725 10.888 25.7725C10.5586 25.7725 10.2426 25.6458 10.0088 25.42C9.8906 25.3085 9.79811 25.1738 9.73747 25.0249C9.67933 24.8807 9.6493 24.7272 9.64893 24.5724C9.64905 24.4189 9.67909 24.2669 9.73747 24.1244C9.80001 23.9764 9.89247 23.842 10.0094 23.7294C10.1263 23.6168 10.2652 23.5281 10.418 23.4687C10.5673 23.4093 10.7269 23.3783 10.8882 23.3774C11.0479 23.3779 11.2059 23.4089 11.3533 23.4687C11.5093 23.5256 11.6508 23.6147 11.768 23.7299L11.9404 23.8953L10.5618 25.2231C10.7013 25.2918 10.8596 25.3153 11.0137 25.2904C11.1679 25.2654 11.3098 25.1932 11.4189 25.0843L11.5909 24.9187ZM10.3567 24.061C10.2855 24.1268 10.229 24.2062 10.1908 24.2943C10.1527 24.3824 10.1336 24.4772 10.135 24.5727C10.1352 24.6822 10.1616 24.7902 10.2121 24.888C10.2566 24.8447 10.3226 24.7809 10.411 24.6957C10.5038 24.6067 10.599 24.5144 10.6984 24.4178C10.8024 24.3192 10.8999 24.2249 10.9922 24.1359C11.089 24.0469 11.1623 23.9771 11.2148 23.9273C11.0756 23.8607 10.919 23.8368 10.7656 23.8589C10.6102 23.8804 10.4666 23.9517 10.3575 24.0613" fill="#085CEA"/>
<path fill-rule="evenodd" clip-rule="evenodd" d="M12.1043 24.5661C12.1026 24.4069 12.1347 24.249 12.1987 24.1024C12.2615 23.961 12.3514 23.8326 12.4634 23.7238C12.5779 23.6142 12.7133 23.5274 12.8621 23.4684C13.0142 23.4045 13.1783 23.3721 13.344 23.3731C13.5095 23.3714 13.6735 23.4039 13.8251 23.4684C13.9735 23.5273 14.1085 23.6141 14.2224 23.7238C14.3377 23.8302 14.4283 23.9592 14.4882 24.1024C14.5557 24.2481 14.5902 24.4063 14.5893 24.5661V25.767H14.0953V24.5661C14.0961 24.4707 14.0753 24.3763 14.0345 24.2896C13.9989 24.2024 13.9441 24.124 13.8739 24.0597C13.807 23.9923 13.7262 23.9396 13.6367 23.9051C13.5438 23.8664 13.4438 23.8464 13.3428 23.8464C13.2418 23.8464 13.1418 23.8664 13.049 23.9051C12.8699 23.9779 12.7271 24.1158 12.6511 24.2896C12.6135 24.3772 12.5945 24.4712 12.5952 24.5661V25.767H12.1043V24.5661Z" fill="#085CEA"/>
<path fill-rule="evenodd" clip-rule="evenodd" d="M15.1193 23.7197C15.2352 23.6059 15.3742 23.5169 15.5273 23.4583C15.6769 23.3985 15.8368 23.3674 15.9985 23.3665C16.1583 23.3669 16.3164 23.3982 16.4637 23.4583C16.6194 23.5157 16.7606 23.6049 16.8779 23.7198L17.0499 23.8849L16.7076 24.2208L16.5292 24.0553C16.4582 23.986 16.3734 23.9314 16.28 23.895C16.0992 23.8245 15.8974 23.8245 15.7166 23.895C15.6231 23.9314 15.5383 23.986 15.4672 24.0553C15.3951 24.1209 15.3388 24.2011 15.3023 24.2903C15.2283 24.4643 15.2283 24.6598 15.3023 24.8338C15.3594 24.9677 15.4561 25.0822 15.58 25.1628C15.7039 25.2435 15.8496 25.2866 15.9987 25.2868C16.0974 25.2871 16.1953 25.269 16.287 25.2335C16.3788 25.1977 16.4616 25.143 16.5296 25.0732L16.708 24.9083L17.0505 25.2441L16.8785 25.4096C16.7605 25.5247 16.6195 25.6151 16.4643 25.6753C16.3162 25.7322 16.1583 25.7613 15.9991 25.7611C15.8379 25.7609 15.6782 25.7318 15.5279 25.6753C15.3752 25.6138 15.2365 25.5235 15.1199 25.4096C15.002 25.2979 14.9096 25.1632 14.8488 25.0145C14.7905 24.872 14.7604 24.7202 14.76 24.5669C14.7601 24.4116 14.7902 24.2576 14.8488 24.1131C14.9098 23.9649 15.0022 23.8309 15.1199 23.7197" fill="#085CEA"/>
<path fill-rule="evenodd" clip-rule="evenodd" d="M17.2442 24.5724C17.2425 24.4131 17.2742 24.2551 17.3375 24.1082C17.4004 23.9668 17.4905 23.8384 17.6029 23.7299C17.7171 23.6195 17.8528 23.5324 18.002 23.4735C18.1533 23.4093 18.3168 23.3765 18.4819 23.3772C18.6477 23.3758 18.812 23.4086 18.9638 23.4735C19.1129 23.5326 19.2484 23.6198 19.3629 23.7299C19.594 23.9528 19.725 24.2556 19.7274 24.5722C19.7282 24.7319 19.6942 24.8899 19.6275 25.0359C19.5665 25.1797 19.4765 25.3103 19.3629 25.4198C19.2477 25.5303 19.1124 25.6188 18.9638 25.6809C18.8111 25.7423 18.6472 25.773 18.4819 25.7713C18.3174 25.7725 18.1542 25.7419 18.002 25.6813C17.8534 25.6194 17.7181 25.5308 17.6033 25.4202C17.4916 25.3089 17.4017 25.1789 17.3378 25.0363C17.2753 24.8893 17.2436 24.7316 17.2446 24.5725L17.2442 24.5724ZM17.7304 24.5725C17.7299 24.6693 17.7488 24.7653 17.7859 24.855C17.8249 24.9418 17.8795 25.0212 17.9469 25.0895C18.0176 25.1549 18.0998 25.2074 18.1896 25.2444C18.2827 25.2804 18.382 25.2987 18.4821 25.2982C18.5827 25.2986 18.6824 25.2803 18.776 25.2444C18.8643 25.2082 18.9445 25.1556 19.0122 25.0895C19.082 25.0229 19.137 24.9431 19.1738 24.855C19.2144 24.7661 19.235 24.6698 19.2344 24.5725C19.2353 24.477 19.2147 24.3823 19.1738 24.2954C19.1379 24.2085 19.0827 24.1304 19.0122 24.0667C18.9466 23.9983 18.8658 23.9454 18.776 23.9121C18.6833 23.8726 18.5832 23.8524 18.4821 23.8526C18.3814 23.8523 18.2818 23.8725 18.1896 23.9121C18.0983 23.9462 18.0156 23.9989 17.9469 24.0667C17.8787 24.1322 17.824 24.2099 17.7859 24.2954C17.7485 24.3832 17.7296 24.4775 17.7304 24.5725Z" fill="#085CEA"/>
<path fill-rule="evenodd" clip-rule="evenodd" d="M22.1266 23.3665V23.843H20.627C20.5945 23.8423 20.5622 23.848 20.532 23.8599C20.5019 23.8717 20.4745 23.8895 20.4517 23.912C20.4279 23.934 20.4092 23.9607 20.3967 23.9903C20.3841 24.0198 20.3781 24.0516 20.379 24.0835C20.3786 24.1491 20.4047 24.2121 20.4517 24.2591C20.4747 24.2814 20.502 24.2991 20.5321 24.3109C20.5623 24.3228 20.5945 24.3286 20.627 24.3281H21.6238C21.7229 24.327 21.8211 24.347 21.9115 24.3866C22.0003 24.4205 22.0812 24.4713 22.1495 24.536C22.219 24.6003 22.2736 24.6783 22.3096 24.7648C22.3515 24.8517 22.3726 24.9467 22.3715 25.0427C22.3722 25.1399 22.351 25.2361 22.3096 25.3246C22.2723 25.4107 22.218 25.4888 22.1495 25.5545C22.0807 25.6198 22 25.6722 21.9115 25.709C21.8201 25.7448 21.7223 25.7627 21.6238 25.7618H20.1308V25.2868H21.6238C21.6577 25.288 21.6915 25.2824 21.7231 25.2704C21.7547 25.2584 21.7834 25.2401 21.8075 25.2169C21.831 25.194 21.8494 25.1666 21.8616 25.1365C21.8738 25.1063 21.8796 25.0741 21.8784 25.0417C21.8792 25.0099 21.8733 24.9783 21.8611 24.9488C21.8489 24.9193 21.8307 24.8926 21.8075 24.8702C21.7831 24.8475 21.7542 24.8297 21.7227 24.818C21.6911 24.8062 21.6575 24.8007 21.6238 24.8017H20.627C20.5297 24.8041 20.4328 24.7869 20.3427 24.7511C20.2525 24.7153 20.1709 24.6617 20.103 24.5938C20.037 24.5266 19.9827 24.4493 19.9423 24.3651C19.9048 24.2754 19.8859 24.1795 19.8865 24.0828C19.8854 23.9874 19.9044 23.8928 19.9423 23.8049C19.9808 23.7196 20.0353 23.642 20.103 23.5761C20.1693 23.512 20.2483 23.4616 20.3351 23.4278C20.4271 23.3882 20.5265 23.3677 20.627 23.3676L22.1266 23.3665Z" fill="#085CEA"/>
<path fill-rule="evenodd" clip-rule="evenodd" d="M25.0139 23.3665V24.5616C25.0149 24.721 24.9812 24.8789 24.915 25.0247C24.8534 25.1691 24.7629 25.3 24.6486 25.4098C24.5335 25.52 24.3984 25.6085 24.2501 25.6707C24.098 25.7319 23.9347 25.7627 23.7701 25.7611C23.6052 25.7619 23.4416 25.7312 23.2888 25.6707C23.1405 25.6088 23.0054 25.5203 22.8907 25.4098C22.7787 25.2984 22.6888 25.1679 22.6253 25.0247C22.5617 24.8782 22.5294 24.7206 22.5303 24.5616V23.3665H23.0228V24.5616C23.0227 24.6585 23.0417 24.7545 23.0786 24.8444C23.1152 24.9318 23.1693 25.0113 23.2379 25.0781C23.3064 25.1449 23.3879 25.1977 23.4777 25.2335C23.5708 25.2695 23.6702 25.2876 23.7703 25.2868C23.8709 25.2875 23.9706 25.2693 24.0642 25.2335C24.1526 25.1967 24.2332 25.1443 24.302 25.0789C24.3707 25.0115 24.4254 24.9319 24.4632 24.8444C24.5028 24.7551 24.5228 24.6588 24.522 24.5616V23.3665H25.0139Z" fill="#085CEA"/>
<path fill-rule="evenodd" clip-rule="evenodd" d="M27.6466 22.4072V24.5611C27.6479 24.7206 27.6141 24.8785 27.5476 25.0243C27.4865 25.1686 27.3963 25.2996 27.2822 25.4093C27.1703 25.5202 27.0372 25.6087 26.8904 25.6699C26.5815 25.7908 26.2365 25.7908 25.9275 25.6699C25.7793 25.6078 25.6439 25.52 25.5281 25.4106C25.4142 25.2998 25.3225 25.1692 25.2579 25.0256C25.1945 24.879 25.1621 24.7215 25.1629 24.5624C25.161 24.4052 25.1924 24.2493 25.2552 24.1045C25.3181 23.9597 25.411 23.829 25.5281 23.7207C25.6426 23.6106 25.7781 23.5235 25.9271 23.4643C26.0792 23.4 26.2433 23.367 26.4091 23.3675H27.1554V22.4072H27.6466ZM26.4085 25.2867C26.5069 25.2877 26.6045 25.2696 26.6957 25.2336C26.7842 25.1968 26.8648 25.1442 26.9335 25.0786C27.0026 25.0117 27.0572 24.932 27.0939 24.8442C27.1345 24.7551 27.1553 24.6587 27.155 24.5613V23.8421H26.4085C26.2078 23.8438 26.0153 23.9202 25.8707 24.0556C25.8031 24.1213 25.749 24.1989 25.7113 24.2843C25.6734 24.3719 25.6544 24.4661 25.6554 24.5611C25.6546 24.6581 25.6736 24.7542 25.7113 24.844C25.7501 24.9305 25.8041 25.0098 25.8707 25.0784C25.9425 25.1429 26.0249 25.1953 26.1144 25.2334C26.208 25.2692 26.3077 25.2873 26.4083 25.2866" fill="#085CEA"/>
<path d="M14.187 20.4079C14.187 20.8812 14.5768 21.2571 15.0501 21.2571C15.5234 21.2571 15.9132 20.8812 15.9132 20.4079V13.0301H18.2936C18.7251 13.0301 19.0731 12.6681 19.0731 12.2366C19.0731 11.8051 18.7251 11.4431 18.2936 11.4431H11.8206C11.3751 11.4431 11.0271 11.8051 11.0271 12.2366C11.0271 12.6681 11.3751 13.0301 11.8206 13.0301H14.187V20.4079Z" fill="#0650E2"/>
<path d="M20.2207 20.4079C20.2207 20.8812 20.5965 21.2571 21.0838 21.2571C21.5571 21.2571 21.9329 20.8812 21.9329 20.4079V12.2227C21.9329 11.7494 21.5571 11.3735 21.0838 11.3735C20.5965 11.3735 20.2207 11.7494 20.2207 12.2227V20.4079Z" fill="#0650E2"/>
<line x1="43.1733" y1="-7.57341e-09" x2="43.1733" y2="38" stroke="#D0D5DD" stroke-width="0.346519"/>
<path d="M103.247 13.0834V10.2107H106.967V27.6559H103.256V20.2882C103.109 21.3396 102.921 22.3746 102.571 23.3751C102.17 24.5237 101.596 25.5729 100.721 26.4385C99.2836 27.8603 97.5255 28.3581 95.5387 28.1915C91.7701 27.8756 88.8746 25.1221 87.9922 21.4161C87.2894 18.4626 87.7025 15.6708 89.5377 13.1867C91.0916 11.0834 93.2199 9.92548 95.8411 9.68668C97.7866 9.50963 99.6015 9.88449 101.22 11.0156C102.018 11.573 102.66 12.2807 103.247 13.0828V13.0834ZM103.231 18.8954C103.24 18.8238 103.249 18.7888 103.248 18.7544C103.228 17.3101 102.745 16.0391 101.743 14.9921C100.418 13.6085 98.7444 13.0326 96.8535 13.085C94.7632 13.1429 93.156 14.0746 92.1441 15.9003C91.2127 17.5812 91.1351 19.3648 91.7795 21.1533C93.1235 24.8822 97.3233 25.5117 99.8994 23.9101C101.347 23.0101 102.083 21.6478 102.354 20.0117C102.414 19.6484 102.433 19.2779 102.472 18.8954H103.231H103.231ZM111.142 27.6581H114.841V10.196H111.142V27.6576V27.6581ZM110.843 5.05338C110.845 6.36758 111.881 7.39325 113.205 7.39052C114.503 7.38834 115.575 6.32222 115.568 5.03863C115.561 3.78618 114.465 2.70422 113.204 2.70313C111.904 2.70203 110.84 3.76049 110.842 5.05338H110.843Z" fill="url(#paint0_linear_1116_1012)"/>
<path d="M61.5429 25.3597V35.2323H57.8293V10.7734H61.5362V18.2225C61.6998 17.4144 61.853 16.4264 62.1058 15.4641C62.4263 14.2439 63.0041 13.1362 63.8717 12.2007C65.3208 10.6384 67.1451 10.0641 69.242 10.2368C73.189 10.5614 76.1215 13.5286 76.9014 17.3603C77.4561 20.0854 77.0452 22.6613 75.4462 24.9766C73.8941 27.2236 71.7195 28.4842 68.9781 28.7416C67.0333 28.9241 65.2178 28.5498 63.594 27.4247C62.8637 26.9187 62.2589 26.2886 61.7549 25.5613C61.7037 25.4875 61.6503 25.4159 61.5979 25.3427C61.5798 25.3482 61.561 25.3542 61.5429 25.3597ZM61.5445 19.4941C61.5787 21.2438 62.1735 22.7039 63.4795 23.8356C64.8207 24.9979 66.4169 25.44 68.1701 25.3411C69.6771 25.2558 70.9572 24.6553 71.9426 23.5127C73.1461 22.1171 73.5333 20.4744 73.3339 18.6745C73.0464 16.0761 71.2403 13.9832 68.4483 13.7346C65.5549 13.4767 63.1677 15.0646 62.5371 17.9624C62.4297 18.4559 62.3911 18.9646 62.3173 19.4947H61.5451L61.5445 19.4941ZM80.193 28.223H83.8884V3.76855H80.193V28.2225V28.223Z" fill="#101828"/>
<defs>
<linearGradient id="paint0_linear_1116_1012" x1="94.0001" y1="28.0001" x2="116.122" y2="5.62045" gradientUnits="userSpaceOnUse">
<stop stop-color="#085CEA"/>
<stop offset="1" stop-color="#8C5CEA"/>
</linearGradient>
</defs>
</svg>
