<svg width="158" height="34" viewBox="0 0 158 34" fill="none" xmlns="http://www.w3.org/2000/svg">
<path d="M3.8476 23.9591V34H0V9.12426H3.84076V16.7004C4.01025 15.8784 4.1689 14.8736 4.43085 13.8949C4.76299 12.6539 5.36165 11.5274 6.26049 10.5759C7.76198 8.98699 9.65211 8.40289 11.8247 8.57851C15.9143 8.90863 18.9527 11.9264 19.7608 15.8234C20.3355 18.5949 19.9097 21.2148 18.253 23.5695C16.6448 25.8548 14.3917 27.1369 11.5514 27.3987C9.53626 27.5843 7.65526 27.2036 5.97286 26.0593C5.21612 25.5447 4.5895 24.9039 4.06732 24.1642C4.01425 24.0892 3.95889 24.0164 3.90467 23.9419C3.88584 23.9474 3.86644 23.9536 3.8476 23.9591ZM3.84932 17.9936C3.8847 19.7731 4.50105 21.2581 5.85416 22.4091C7.24379 23.5912 8.89766 24.0408 10.7142 23.9402C12.2756 23.8535 13.6019 23.2427 14.6228 22.0807C15.8698 20.6612 16.271 18.9906 16.0644 17.16C15.7665 14.5173 13.8952 12.3888 11.0024 12.1359C8.00452 11.8736 5.53115 13.4886 4.8777 16.4358C4.76642 16.9377 4.72647 17.4551 4.65 17.9942H3.84989L3.84932 17.9936ZM23.1712 26.8713H27V2H23.1712V26.8707V26.8713Z" fill="#1D2939"/>
<path d="M47.1928 10.9826V7.94324H51.0592V26.4008H47.202V18.6055C47.0491 19.7179 46.8533 20.8129 46.4903 21.8715C46.0735 23.0868 45.4769 24.1968 44.5671 25.1126C43.0728 26.617 41.2453 27.1437 39.1801 26.9674C35.2628 26.6332 32.2529 23.7199 31.3357 19.7988C30.6052 16.6739 31.0346 13.7201 32.9423 11.0919C34.5574 8.86655 36.7697 7.64144 39.4944 7.38879C41.5166 7.20147 43.4032 7.59808 45.0859 8.79486C45.9149 9.38457 46.5825 10.1333 47.1928 10.982V10.9826ZM47.1762 17.1318C47.1854 17.0561 47.1945 17.0191 47.194 16.9827C47.1733 15.4546 46.6712 14.1098 45.6292 13.0021C44.2522 11.5382 42.5123 10.9288 40.5468 10.9843C38.374 11.0456 36.7033 12.0314 35.6515 13.963C34.6834 15.7414 34.6027 17.6285 35.2725 19.5207C36.6695 23.4661 41.0351 24.1321 43.7129 22.4375C45.2181 21.4853 45.983 20.044 46.2647 18.313C46.3271 17.9285 46.346 17.5365 46.3867 17.1318H47.1756H47.1762ZM55.399 26.4031H59.2436V7.92763H55.399V26.4025V26.4031ZM55.0881 2.48663C55.0904 3.87709 56.1674 4.96228 57.5432 4.95939C58.8932 4.95708 60.0074 3.82911 60 2.47102C59.9925 1.1459 58.8537 0.0011572 57.542 8.94631e-07C56.1914 -0.00115541 55.0853 1.11873 55.0876 2.48663H55.0881Z" fill="url(#paint0_linear_1078_810)"/>
<path d="M152.762 22.8008V20.4705C153.642 20.4705 154.521 20.0622 155.066 19.3353C156.223 17.9909 155.659 16.1087 155.802 14.5154C154.798 14.4855 153.775 14.3859 152.762 14.4456V12.2249C153.775 12.2249 154.789 12.2846 155.802 12.2249C155.802 10.8207 155.783 9.42656 155.821 8.02241C156.538 7.99253 157.265 7.99253 157.972 8.02241C158.02 11.2091 157.991 14.3959 157.991 17.5925C157.953 20.2216 155.735 22.6614 153.125 22.7909C153.011 22.7909 152.896 22.8108 152.781 22.8108L152.762 22.8008ZM152.762 12.2249V14.4456C152.16 14.4855 151.577 14.5651 151.003 14.7444C149.292 15.7303 149.32 18.4988 150.793 19.7137C151.328 20.2415 152.055 20.4805 152.772 20.4705V22.8008C151.156 22.8307 149.636 21.9743 148.642 20.7095V13.8183C149.158 13.151 149.837 12.6332 150.668 12.3743C151.357 12.2448 152.064 12.2249 152.762 12.2149H152.772L152.762 12.2249ZM137.026 12.2647C137.007 14.1967 136.978 16.1286 137.026 18.0606C137.103 20.2017 138.747 22.1734 140.793 22.6415C142.514 23.0896 144.473 22.5618 145.688 21.2174C146.567 20.3212 147.036 19.0764 147.064 17.8116C147.103 15.9693 147.064 14.1071 147.083 12.2647C146.28 12.2149 145.487 12.2149 144.684 12.2647C144.684 14.1071 144.712 15.9693 144.684 17.8116C144.684 19.1859 143.441 20.3909 142.093 20.351C140.716 20.4407 139.387 19.2158 139.416 17.8216C139.397 15.9693 139.445 14.1071 139.397 12.2548C138.604 12.2149 137.81 12.2149 137.007 12.2548L137.026 12.2647ZM148.642 13.8183V20.7095C148.097 20.0025 147.724 19.166 147.581 18.2797C147.303 16.766 147.686 15.0432 148.642 13.8183ZM120.822 22.99V20.829C120.889 20.829 120.956 20.829 121.023 20.829C122.839 20.7693 124.369 18.9668 124.139 17.1344C124.034 15.4315 122.447 14.0871 120.812 14.0672V11.8963C122.82 11.8963 124.799 13.1012 125.707 14.9436C126.73 17.0448 126.348 19.8432 124.608 21.4465C123.613 22.4822 122.227 22.99 120.822 23V22.99ZM127.868 12.9021C128.785 12.1552 130.009 12.2249 131.118 12.2448C132.6 12.2448 134.082 12.2249 135.563 12.2647C135.602 12.9917 135.602 13.7187 135.563 14.4456C133.642 14.5054 131.711 14.4158 129.789 14.4855C129.101 14.4656 128.604 15.2324 128.919 15.8598C129.397 16.5867 130.363 16.4075 131.099 16.4274C132.514 16.4871 134.091 16.1386 135.334 17.0149C137.026 18.0606 137.103 20.8788 135.506 22.0539C134.78 22.6415 133.843 22.8208 132.944 22.8108C131.108 22.8108 129.292 22.8407 127.456 22.7809C127.428 22.0539 127.428 21.3369 127.456 20.61C129.502 20.5303 131.558 20.6697 133.594 20.5402C134.521 20.5004 134.78 18.9967 133.852 18.7378C131.911 18.3195 129.713 19.156 127.934 18.0008C126.223 16.9054 126.166 14.0274 127.858 12.8822L127.868 12.9021ZM120.822 11.8963V14.0672C120.535 14.0672 120.248 14.1071 119.961 14.1867C118.508 14.5751 117.351 16.039 117.476 17.6025C117.476 19.3651 119.101 20.8589 120.822 20.829V22.99C119.474 22.99 118.116 22.512 117.132 21.5461C116.118 20.6398 115.487 19.3253 115.382 17.971V16.8656C115.554 14.595 117.323 12.5635 119.512 12.0456C119.942 11.9261 120.392 11.8764 120.822 11.8764V11.8963ZM115.382 20.4407L115.401 20.4108L115.382 20.3909V20.4407ZM115.382 16.8855V17.9909C115.363 17.7817 115.363 17.5726 115.382 17.3635C115.382 17.2042 115.382 17.0349 115.382 16.8855ZM115.382 20.4008C114.914 19.883 114.445 19.3851 113.929 18.9369C113.327 19.5842 112.715 20.3112 111.826 20.5303C109.856 21.1776 107.533 19.4846 107.581 17.3734C107.428 15.4415 109.283 13.6788 111.176 13.9079C112.342 13.9378 113.221 14.7842 113.919 15.6407C114.388 15.1427 115.019 14.7444 115.306 14.1071C114.436 12.5137 112.495 11.6473 110.726 11.727C108.432 11.7568 106.29 13.4498 105.65 15.6606C105.181 17.3934 105.468 19.3851 106.673 20.7693C107.839 22.2631 109.799 23.0299 111.654 22.751C113.145 22.5618 114.55 21.7054 115.382 20.4307V20.3809V20.4008ZM88.891 22.761V20.5402C89.5793 20.6996 90.3155 20.6697 90.9656 20.371C91.7017 20.0622 92.2179 19.4249 92.6959 18.8274C93.2217 19.3154 93.7284 19.8432 94.2064 20.3909C93.4894 21.3768 92.5047 22.1734 91.3384 22.5519C90.5545 22.8208 89.7036 22.8905 88.891 22.771V22.761ZM88.891 19.2058C90.1529 18.21 91.4722 17.3037 92.7342 16.3079C93.3173 15.81 94.0726 15.4614 94.4932 14.8042C93.7093 12.912 91.6634 11.7071 89.6558 11.7369C89.3977 11.7369 89.1396 11.7369 88.891 11.7768V13.9876C89.761 13.7983 90.7074 13.9676 91.4914 14.4158C90.6883 15.1726 89.7801 15.8 88.891 16.4573V19.2058ZM94.9808 16.6664C94.9808 18.6979 94.9999 20.7394 94.9808 22.771C95.7169 22.8705 96.4435 22.8705 97.1701 22.771C97.1701 20.7394 97.1318 18.7079 97.1701 16.6764C97.2083 15.2324 98.5658 14.0473 99.9616 14.0672C101.443 14.0174 102.877 15.3718 102.763 16.8954C102.763 18.8473 102.763 20.8091 102.763 22.761C103.508 22.8805 104.245 22.8307 105 22.8108C105 20.61 105.086 18.3992 104.952 16.2083C104.713 13.4797 101.883 11.5178 99.2828 11.956C96.998 12.205 94.9043 14.2764 94.9808 16.6764V16.6564V16.6664ZM88.891 11.7768V13.9876C88.3748 14.0971 87.8872 14.3361 87.4761 14.7145C86.4532 15.551 86.109 16.9651 86.3671 18.2398C87.0459 17.9909 87.5622 17.4432 88.1453 17.0249C88.3843 16.8357 88.6233 16.6465 88.8815 16.4672V19.2158C88.5086 19.5046 88.1358 19.8133 87.782 20.122C88.1262 20.3212 88.499 20.4705 88.8815 20.5602V22.7809C87.4188 22.5618 86.0325 21.7651 85.1912 20.5104C84.0536 18.9668 83.872 16.8257 84.6081 15.073C85.3442 13.3303 87.0268 12.0357 88.8815 11.7867L88.891 11.7768ZM74.1111 16.2282C73.7 18.1602 74.4553 20.2515 75.9562 21.5162C78.2506 23.6274 82.3423 23.0996 83.9771 20.4108C83.5087 19.883 83.0307 19.3751 82.5144 18.917C81.8739 19.7037 81.0995 20.5203 80.0384 20.6299C78.0594 21.0183 76.004 19.1859 76.1474 17.1444C76.1761 15.3618 77.83 13.8083 79.589 13.9178C80.7936 13.888 81.8165 14.6946 82.4379 15.6705C82.9924 15.1925 83.4991 14.6847 83.9771 14.127C82.9829 12.5834 81.1664 11.6672 79.35 11.7469C76.8548 11.7469 74.5413 13.7585 74.1111 16.2382V16.2282Z" fill="#1D2939"/>
<defs>
<linearGradient id="paint0_linear_1078_810" x1="34.8781" y1="32.7273" x2="71.2027" y2="-7.1808" gradientUnits="userSpaceOnUse">
<stop stop-color="#84F5B1"/>
<stop offset="1" stop-color="#0044EA"/>
</linearGradient>
</defs>
</svg>
